<svg xmlns="http://www.w3.org/2000/svg" xmlns:xlink="http://www.w3.org/1999/xlink" width="500" zoomAndPan="magnify" viewBox="0 0 375 374.999991" height="500" preserveAspectRatio="xMidYMid meet" version="1.0"><defs><g/></defs><g fill="#ffffff" fill-opacity="1"><g transform="translate(127.07966, 279.713296)"><g><path d="M 15.09375 -15.09375 L 15.09375 -30.203125 L 0 -30.203125 L 0 -120.8125 L 30.203125 -120.8125 L 30.203125 -60.40625 L 45.296875 -60.40625 L 45.296875 -120.8125 L 60.40625 -120.8125 L 60.40625 -60.40625 L 75.5 -60.40625 L 75.5 -120.8125 L 105.703125 -120.8125 L 105.703125 -30.203125 L 90.609375 -30.203125 L 90.609375 -15.09375 L 75.5 -15.09375 L 75.5 -30.203125 L 60.40625 -30.203125 L 60.40625 -45.296875 L 45.296875 -45.296875 L 45.296875 -30.203125 L 30.203125 -30.203125 L 30.203125 -15.09375 Z M 15.09375 -15.09375 "/></g></g></g><g fill="#ffffff" fill-opacity="1"><g transform="translate(141.331769, 221.225308)"><g><path d="M 10.96875 -10.96875 L 10.96875 -21.953125 L 0 -21.953125 L 0 -32.921875 L 21.953125 -32.921875 L 21.953125 -21.953125 L 54.875 -21.953125 L 54.875 -87.8125 L 76.828125 -87.8125 L 76.828125 -21.953125 L 65.859375 -21.953125 L 65.859375 -10.96875 Z M 10.96875 -10.96875 "/></g></g></g></svg>