<svg xmlns="http://www.w3.org/2000/svg" xmlns:xlink="http://www.w3.org/1999/xlink" width="500" zoomAndPan="magnify" viewBox="0 0 375 374.999991" height="500" preserveAspectRatio="xMidYMid meet" version="1.0"><path fill="#ffffff" d="M 83.777344 365.234375 L 83.777344 324.113281 L 42.714844 324.113281 L 42.714844 77.597656 L 124.882812 77.597656 L 124.882812 241.945312 L 165.957031 241.945312 L 165.957031 77.597656 L 207.0625 77.597656 L 207.0625 241.945312 L 248.125 241.945312 L 248.125 77.597656 L 330.304688 77.597656 L 330.304688 324.113281 L 289.230469 324.113281 L 289.230469 365.234375 L 248.125 365.234375 L 248.125 324.113281 L 207.0625 324.113281 L 207.0625 283.050781 L 165.957031 283.050781 L 165.957031 324.113281 L 124.882812 324.113281 L 124.882812 365.234375 Z M 83.777344 365.234375 " fill-opacity="1" fill-rule="nonzero"/><path fill="#ffffff" d="M 111.328125 217.324219 L 111.328125 187.429688 L 81.488281 187.429688 L 81.488281 157.59375 L 141.222656 157.59375 L 141.222656 187.429688 L 230.789062 187.429688 L 230.789062 8.25 L 290.523438 8.25 L 290.523438 187.429688 L 260.671875 187.429688 L 260.671875 217.324219 Z M 111.328125 217.324219 " fill-opacity="1" fill-rule="nonzero"/></svg>