<svg xmlns="http://www.w3.org/2000/svg" xmlns:xlink="http://www.w3.org/1999/xlink" width="375" zoomAndPan="magnify" viewBox="0 0 281.25 281.249989" height="375" preserveAspectRatio="xMidYMid meet" version="1.0"><defs><clipPath id="f7ae8d6154"><path d="M 116 94.125 L 175 94.125 L 175 153 L 116 153 Z M 116 94.125 " clip-rule="nonzero"/></clipPath></defs><path fill="#ffffff" d="M 117.199219 192.929688 L 117.199219 181.625 L 105.910156 181.625 L 105.910156 113.851562 L 128.5 113.851562 L 128.5 159.035156 L 139.792969 159.035156 L 139.792969 113.851562 L 151.09375 113.851562 L 151.09375 159.035156 L 162.382812 159.035156 L 162.382812 113.851562 L 184.976562 113.851562 L 184.976562 181.625 L 173.683594 181.625 L 173.683594 192.929688 L 162.382812 192.929688 L 162.382812 181.625 L 151.09375 181.625 L 151.09375 170.335938 L 139.792969 170.335938 L 139.792969 181.625 L 128.5 181.625 L 128.5 192.929688 Z M 117.199219 192.929688 " fill-opacity="1" fill-rule="nonzero"/><g clip-path="url(#f7ae8d6154)"><path fill="#ffffff" d="M 124.773438 152.265625 L 124.773438 144.046875 L 116.570312 144.046875 L 116.570312 135.84375 L 132.992188 135.84375 L 132.992188 144.046875 L 157.617188 144.046875 L 157.617188 94.785156 L 174.039062 94.785156 L 174.039062 144.046875 L 165.832031 144.046875 L 165.832031 152.265625 Z M 124.773438 152.265625 " fill-opacity="1" fill-rule="nonzero"/></g></svg>